inDegrees=no
num_controls=7
num_derivatives=13
num_iterations=150
num_multipliers=7
num_parameters=0
num_slacks=7
num_states=26
objective=0.462917
objective_accelerations=0.001656
objective_balance=0.002107
objective_effort=0.003530
objective_height=0.455384
objective_ligament=0.000241
solver_duration=2010.811782
status=Solve_Succeeded
success=true
DataType=double
version=3
OpenSimVersion=4.5
endheader
time	/jointset/ground_pelvis/pelvis_tilt/value	/jointset/ground_pelvis/pelvis_tx/value	/jointset/ground_pelvis/pelvis_ty/value	/jointset/hip_l/hip_flexion_l/value	/jointset/hip_l/hip_adduction_l/value	/jointset/hip_l/hip_rotation_l/value	/jointset/back/lumbar_extension/value	/jointset/patellofemoral_l/patellar_flexion_l/value	/jointset/knee_l/knee_flexion_l/value	/jointset/knee_l/knee_adduction_l/value	/jointset/knee_l/knee_rotation_l/value	/jointset/ankle_l/ankle_angle_l/value	/jointset/subtalar_l/subtalar_angle_l/value	/jointset/ground_pelvis/pelvis_tilt/speed	/jointset/ground_pelvis/pelvis_tx/speed	/jointset/ground_pelvis/pelvis_ty/speed	/jointset/hip_l/hip_flexion_l/speed	/jointset/hip_l/hip_adduction_l/speed	/jointset/hip_l/hip_rotation_l/speed	/jointset/back/lumbar_extension/speed	/jointset/patellofemoral_l/patellar_flexion_l/speed	/jointset/knee_l/knee_flexion_l/speed	/jointset/knee_l/knee_adduction_l/speed	/jointset/knee_l/knee_rotation_l/speed	/jointset/ankle_l/ankle_angle_l/speed	/jointset/subtalar_l/subtalar_angle_l/speed	/forceset/tau_hip_flexion_l	/forceset/tau_hip_adduction_l	/forceset/tau_hip_rotation_l	/forceset/tau_knee_flexion_l	/forceset/tau_ankle_angle_l	/forceset/tau_subtalar_angle_l	/forceset/tau_lumbar_extension	lambda_cid13_p0	lambda_cid13_p1	lambda_cid13_p2	lambda_cid13_p3	lambda_cid13_p4	lambda_cid13_p5	lambda_cid14_p0	/jointset/ground_pelvis/pelvis_tilt/accel	/jointset/ground_pelvis/pelvis_tx/accel	/jointset/ground_pelvis/pelvis_ty/accel	/jointset/hip_l/hip_flexion_l/accel	/jointset/hip_l/hip_adduction_l/accel	/jointset/hip_l/hip_rotation_l/accel	/jointset/back/lumbar_extension/accel	/jointset/patellofemoral_l/patellar_flexion_l/accel	/jointset/knee_l/knee_flexion_l/accel	/jointset/knee_l/knee_adduction_l/accel	/jointset/knee_l/knee_rotation_l/accel	/jointset/ankle_l/ankle_angle_l/accel	/jointset/subtalar_l/subtalar_angle_l/accel	gamma_cid13_p0	gamma_cid13_p1	gamma_cid13_p2	gamma_cid13_p3	gamma_cid13_p4	gamma_cid13_p5	gamma_cid14_p0
1.5	-0.1057365059554475	0.1094919341370458	0.89225412285246	0.2236789460366612	-0.3265830135145042	-0.5199365174723437	-0.1152436400948796	0.09301577028238669	0.09301577028238779	-0.1744673093303327	-0.1539813331552328	-0.01170060597188039	0.03016887540957208	-0.03478265363343831	0.01769358950342781	0.003640872678584708	-0.03384211897396147	0.02581154648635353	-0.0313481756001675	0.2421807263945492	-0.09883512326048492	-0.09883512326048483	0.001889850038676196	0.009383852764240475	-0.0279426525004773	0.01327689784361047	-0.0132252014284577	0.0351243398312627	-0.01356156918165084	-0.07564579619345359	0.01486911292017781	-0.02115775778873736	0.04899439579190881	-31.58600664819663	7.215257663700418	7.085188912280208	4.154426844568991	-545.938472885356	-51.62435670887137	-41.32018904879742	0.06760855695260347	-0.06238304100050123	0.003794381355471442	-0.007938657803617891	0.01877404698515214	-0.02217087212239617	0.01879424210852308	-0.0388114611843019	-0.03881146118430175	0.01222194112283912	-0.02009879223837801	-0.092866227432277	-0.03241078017906619	-7.360972169790803e-10	1.40306496403245e-09	1.150587234717048e-09	5.276691876550833e-10	-1.087475389374056e-09	-4.003452192187271e-10	-1.257164510010789e-10
1.51	-0.1060808903047142	0.1096657394773144	0.8922907155733573	0.2233400318810611	-0.3263240671497482	-0.5202511194547447	-0.1128211566142092	0.09202550443932934	0.09202550443933002	-0.1744480378711311	-0.153888537244514	-0.01198470740384526	0.03029988444569384	-0.03408570300825853	0.01706632334727629	0.003677437913494092	-0.03395505466438982	0.02596735659790209	-0.03156953396831017	0.2422871026981205	-0.09922003351423878	-0.0992200335142389	0.001939396721502967	0.009176933221987796	-0.02888271389026035	0.01291028833067712	-0.01238793885228501	0.03440442525654373	-0.01368542550709181	-0.07625198003377856	0.01572832735374969	-0.02125445061985886	0.04813676230283514	-31.31781326635594	7.218635027331867	7.075121457647905	4.084654781753164	-545.8863976241174	-51.76981082026294	-41.30231775335459	0.07201520849963919	-0.06307159258845904	0.00355237237376947	-0.01512251004677545	0.01242879240193415	-0.02171533552687176	0.002229268271063703	-0.03862901907849427	-0.03862901907852518	-0.002435454403361143	-0.02074791191812433	-0.09533814260219572	-0.04097944903706079	-6.29493158790905e-10	1.241937449495977e-09	8.611298582901056e-10	4.790098088983557e-10	-9.772020633293827e-10	-3.12076889576941e-10	-8.525217246635643e-11
1.52	-0.1064180497690893	0.1098332375180882	0.8923276669021666	0.2229995580714798	-0.3260638738240442	-0.5205678544241001	-0.1103984753817451	0.09103132985141295	0.09103132985141318	-0.1744290222423545	-0.1537977624045575	-0.01227836185927812	0.03042678870424894	-0.03333767665511869	0.01643212960448525	0.003712594261006457	-0.03415404977019277	0.02606093867593976	-0.03177477299110208	0.2422202767532776	-0.09961687223229529	-0.09961687223229561	0.001838683953691485	0.008979638611758645	-0.02985325719407831	0.0124559423302801	-0.01155067627611255	0.03368451068182477	-0.01380928183253245	-0.07685816387410352	0.0165875417873216	-0.02135114345098031	0.04727912881376126	-31.05007325383879	7.222055699071884	7.065088301449316	4.019809869984937	-545.8383227948239	-51.9160498018477	-41.28430311921147	0.07782370254461742	-0.0637685583284061	0.003512603876067571	-0.02515054087866572	0.006328440282978182	-0.01894700305048894	-0.01584620757430016	-0.04119715404483104	-0.04119715404483103	-0.01782994900480949	-0.01817380583367287	-0.09896261023924152	-0.04995807767180006	-5.311504660561216e-10	1.166033482383513e-09	5.618700619111308e-10	4.498805187643156e-10	-8.473719154200999e-10	-1.869788665755667e-10	-3.924071142689664e-11
1.53	-0.1067476876783337	0.1099943649341874	0.8923649411436595	0.2226569147866974	-0.3258030924281495	-0.5208865674783553	-0.1079770722289145	0.09003320600940368	0.09003320600940329	-0.1744118062592142	-0.1537089498346453	-0.0125818529455714	0.03054868207492001	-0.03260348206074863	0.01579269847349262	0.003739817592799594	-0.03436186120729232	0.02608190009640021	-0.03196666503475902	0.2420576542882138	-0.1000004999753715	-0.1000004999753708	0.001577469598152521	0.008779450663600651	-0.03084713742270368	0.01190636210862097	-0.01069141540043737	0.03291810999861192	-0.01394271705617426	-0.07752521816735569	0.01753988521771911	-0.02144692535940782	0.04641468476196377	-30.75221808915921	7.221277309289284	7.054046073640722	3.928765938681908	-545.7897637207939	-52.0693097061932	-41.26614759160549	0.06918074384822744	-0.06412857436327798	0.001961607888704238	-0.01668462670628874	-0.002036238403442749	-0.01913433289209682	-0.01687519466524329	-0.03583616340183796	-0.03583616340182284	-0.03432342879844214	-0.02145505294987191	-0.09992736807659741	-0.05991363675496478	-4.415854741155669e-10	1.180679534409059e-09	2.521951943331223e-10	4.415019477918807e-10	-6.967626442796695e-10	-2.274929437963037e-11	1.266463102384651e-11
1.54	-0.1070703909604414	0.110149078402201	0.892402414500482	0.2223125757512279	-0.3255425046643164	-0.5212071642586207	-0.1055573762864731	0.08903146777417106	0.08903146777417012	-0.1743980136696234	-0.1536222418969432	-0.0128953481619314	0.03066458851490607	-0.03195075122777773	0.01514933998735633	0.00375241732690201	-0.03449319990761941	0.02602221226362085	-0.03215151819316805	0.2418788346754367	-0.1003397508769605	-0.1003397508769606	0.001154005243814277	0.008558712169722277	-0.03185408320742401	0.01125855619328204	-0.009832154524762037	0.03215170931539911	-0.01407615227981585	-0.07819227246060778	0.01849222864811668	-0.02154270726783528	0.04555024071016635	-30.45482407436397	7.220500257903623	7.043094329607055	3.842227441984134	-545.74549369313	-52.22373528371694	-41.2478669045322	0.06153095026472775	-0.06455402935714256	0.0005878843379231832	-0.009855993524169878	-0.009801410364883889	-0.0175392260009098	-0.01908563711695037	-0.03232178574737594	-0.03232178574737603	-0.05027994876458365	-0.02228391497774872	-0.1015757214580802	-0.06960321640775938	-3.185847409914359e-10	1.263207823542806e-09	-6.537567097950461e-11	4.169761725364351e-10	-5.174860198849521e-10	2.306456196894175e-10	7.3699920090382e-11
1.55	-0.1073867698688512	0.1102973253465666	0.8924399639241578	0.2219671905724514	-0.3252828053045251	-0.5215294808639044	-0.1031398476148619	0.08802659124204885	0.08802659124204811	-0.1743889800189534	-0.1535377483196188	-0.01321891744283643	0.03077368528617506	-0.03131895200888814	0.01449796451990821	0.003757242839304821	-0.03458042976858069	0.02591549263933053	-0.0323019006475569	0.2415950341351863	-0.1006229738908877	-0.1006229738908877	0.000655675077526415	0.00834482115169501	-0.03285501851531887	0.01056099192629607	-0.008930388255206992	0.03135463596537435	-0.014216823984373	-0.07891168529695718	0.01950672471691065	-0.02163641206708567	0.04464214977370745	-30.13751497465689	7.2162341683353	7.031670772356032	3.745187843302245	-545.6990079647577	-52.39012700939305	-41.22947885820765	0.06491612716830648	-0.06574189034534038	0.0003961619035339412	-0.00764562493479121	-0.01143241993452755	-0.01230226547844129	-0.0378070892201406	-0.02443534772851367	-0.02443534772849438	-0.04916685193515753	-0.02021918914665841	-0.09863925686171846	-0.06980411922096952	-1.570602191123166e-10	1.423948255431649e-09	-3.920440988994087e-10	3.738460097375219e-10	-3.051796189146447e-10	5.867745146122624e-10	1.452544954751124e-10
1.56	-0.1076966484411788	0.1104389960192765	0.8924775548584	0.2216210352665548	-0.3250242381772714	-0.5218530041957962	-0.1007261129140015	0.08701925992208476	0.08701925992208426	-0.1743848411302212	-0.1534552491512609	-0.01355235344110173	0.03087581219729881	-0.03065068401130908	0.01383408565619229	0.003760719440189059	-0.03464722533165109	0.02579576575610338	-0.03239286351478064	0.2411200405252936	-0.1008307084453397	-0.1008307084453395	0.0001750528562677648	0.008159830376410051	-0.03382742667947586	0.009864584164231948	-0.008028621985651845	0.03055756261534963	-0.01435749568892998	-0.07963109813330659	0.02052122078570466	-0.021730116866336	0.04373405883724853	-29.82062207978511	7.211952809294378	7.020350336394504	3.652243801001926	-545.6563415128436	-52.55767117123985	-41.2109847149776	0.06882470600262253	-0.06705470861070156	0.0003181020342083813	-0.00576913394616899	-0.01240286215225034	-0.005655308569100053	-0.05732425104542735	-0.01722409385232459	-0.01722409385232458	-0.04673835975874003	-0.01650386642928647	-0.09587029271059534	-0.06937191542339075	-6.246894001082847e-11	1.535649401396105e-09	-5.718344976687645e-10	3.437116938267043e-10	-1.357329779497105e-10	8.130701736532895e-10	1.832615195552285e-10
1.57	-0.1079996183963242	0.1105739698437494	0.8925151804824383	0.2212742827240461	-0.324766898044601	-0.5221772697611322	-0.09831814885575926	0.08601025085193835	0.08601025085193947	-0.174385338144837	-0.1533745813366485	-0.01389534740968042	0.03097103549761537	-0.02993282213430399	0.0131589876541985	0.003764792040063351	-0.03470246375399744	0.02567336818899024	-0.03246306890425809	0.2404341960366379	-0.1009552307696253	-0.1009552307696273	-0.0002633393152666199	0.007965770028392329	-0.03476380612167475	0.009185708456093629	-0.007091311062135248	0.02970111934450415	-0.01451105665501654	-0.08043005122772133	0.02164345624361021	-0.0218167379991916	0.0428002669579151	-29.46897406723018	7.200315253166594	7.00814023801923	3.530892934200232	-545.6163751004577	-52.74207799562796	-41.1923900500523	0.0748396006869286	-0.06799101926119099	0.0005098492249813057	-0.005278347668543754	-0.01199222051790241	-0.008125898369171589	-0.08000081075005366	-0.007685114987985353	-0.007685114987977446	-0.04072199391036217	-0.02205167068650382	-0.09138761901282305	-0.06630069969552636	-5.15442143813784e-11	1.586051439955078e-09	-5.680273599999368e-10	3.29822186526006e-10	-1.986103699149208e-11	8.770742878420462e-10	1.793341045045771e-10
